<svg width="18.000000" height="18.000000" viewBox="0 0 18 18" fill="none">
	<defs>
		<clipPath id="clip8_3874">
			<rect id="log-out" rx="0.000000" width="17.000000" height="17.000000" transform="translate(0.500000 0.500000)" fill="white" fill-opacity="0"/>
		</clipPath>
	</defs>
	<rect id="log-out" rx="0.000000" width="17.000000" height="17.000000" transform="translate(0.500000 0.500000)" fill="#FFFFFF" fill-opacity="0"/>
	<g clip-path="url(#clip8_3874)">
		<path id="Vector" d="M3.99 5C3.99 2.23 6.23 0 8.99 0C11.76 0 13.99 2.23 13.99 5C13.99 7.76 11.76 10 8.99 10C6.23 10 3.99 7.76 3.99 5ZM8.99 2C7.34 2 5.99 3.34 5.99 5C5.99 6.65 7.34 8 8.99 8C10.65 8 11.99 6.65 11.99 5C11.99 3.34 10.65 2 8.99 2Z" fill="#000000" fill-opacity="1.000000" fill-rule="evenodd"/>
		<path id="Vector" d="M17.96 16.73C17.25 13.95 14.75 12 11.87 12L6.12 12C3.24 12 0.72 13.96 0.02 16.75C-0.11 17.29 0.22 17.83 0.75 17.97C1.29 18.1 1.83 17.77 1.96 17.24C2.44 15.33 4.15 14 6.12 14L11.87 14C13.83 14 15.54 15.32 16.02 17.22C16.12 17.66 16.52 18 16.99 18C17.55 18 17.99 17.55 17.99 17C17.99 16.9 17.98 16.81 17.96 16.73Z" fill="#000000" fill-opacity="1.000000" fill-rule="nonzero"/>
	</g>
</svg>
