<svg width="204.811035" height="52.000000" viewBox="0 0 204.811 52" fill="none" xmlns="http://www.w3.org/2000/svg" xmlns:xlink="http://www.w3.org/1999/xlink">
	<desc>
			Created with Pixso.
	</desc>
	<defs/>
	<path id="Vector" d="M200.55 0.77C202.9 0.77 204.81 2.66 204.81 4.99C204.81 7.32 202.9 9.21 200.55 9.21C198.19 9.21 196.29 7.32 196.29 4.99C196.29 2.66 198.19 0.77 200.55 0.77ZM202.43 7.1L201.47 5.49C201.93 5.38 202.4 4.99 202.4 4.24C202.4 3.45 201.86 2.88 200.97 2.88L198.98 2.88L198.98 7.1L199.89 7.1L199.89 5.6L200.55 5.6L201.39 7.1L202.43 7.1ZM200.84 4.81L199.89 4.81L199.89 3.67L200.84 3.67C201.2 3.67 201.48 3.88 201.48 4.24C201.48 4.59 201.2 4.81 200.84 4.81ZM7.94 33.47L15.13 33.47L15.13 46.3L5.68 46.3L5.68 52L29.52 52L29.52 46.3L20.08 46.3L20.08 33.47L35.31 33.47L35.31 19.94L30.36 19.94L30.36 27.78L27.36 27.78L27.36 9.27L7.94 9.27L7.94 27.78L4.94 27.78L4.94 19.94L0 19.94L0 33.47L7.94 33.47ZM12.26 5.69L23.05 5.69L23.05 0L12.26 0L12.26 5.69ZM55.75 34.39L55.75 30.56L45.54 30.56L45.54 25.93L55.54 25.93L55.54 22.1L45.54 22.1L45.54 17.78L55.75 17.78L55.75 13.95L41.14 13.95L41.14 34.39L55.75 34.39ZM70.49 34.39L78.44 13.95L73.43 13.95L67.73 29.67L62.01 13.95L56.99 13.95L64.98 34.39L70.49 34.39ZM94.97 34.39L94.97 30.56L84.76 30.56L84.76 25.93L94.76 25.93L94.76 22.1L84.76 22.1L84.76 17.78L94.97 17.78L94.97 13.95L80.36 13.95L80.36 34.39L94.97 34.39ZM115.12 34.39L110.48 26.61C112.71 26.09 115 24.16 115 20.54C115 16.74 112.37 13.95 108.07 13.95L98.41 13.95L98.41 34.39L102.8 34.39L102.8 27.13L106.02 27.13L110.08 34.39L115.12 34.39ZM107.42 23.3L102.8 23.3L102.8 17.78L107.42 17.78C109.18 17.78 110.51 18.82 110.51 20.54C110.51 22.25 109.18 23.3 107.42 23.3ZM122.71 34.39L122.71 27.13L127.97 27.13C132.43 27.13 134.9 24.09 134.9 20.54C134.9 16.95 132.46 13.95 127.97 13.95L118.31 13.95L118.31 34.39L122.71 34.39ZM127.38 23.3L122.71 23.3L122.71 17.78L127.38 17.78C129.12 17.78 130.42 18.82 130.42 20.54C130.42 22.22 129.12 23.3 127.38 23.3ZM154.34 34.39L149.7 26.61C151.93 26.09 154.22 24.16 154.22 20.54C154.22 16.74 151.59 13.95 147.29 13.95L137.63 13.95L137.63 34.39L142.03 34.39L142.03 27.13L145.25 27.13L149.3 34.39L154.34 34.39ZM146.64 23.3L142.02 23.3L142.02 17.78L146.64 17.78C148.4 17.78 149.73 18.82 149.73 20.54C149.73 22.25 148.4 23.3 146.64 23.3ZM167.32 34.76C173.57 34.76 178.12 30.35 178.12 24.19C178.12 18.03 173.57 13.61 167.32 13.61C161.1 13.61 156.54 18.03 156.54 24.19C156.54 30.35 161.09 34.76 167.32 34.76ZM167.32 30.9C163.51 30.9 161.06 27.99 161.06 24.19C161.06 20.35 163.51 17.47 167.32 17.47C171.12 17.47 173.6 20.35 173.6 24.19C173.6 27.99 171.12 30.9 167.32 30.9ZM185.61 34.39L185.61 25.93L195.61 25.93L195.61 22.1L185.61 22.1L185.61 17.78L195.83 17.78L195.83 13.95L181.22 13.95L181.22 34.39L185.61 34.39ZM200.55 1.69C202.38 1.69 203.88 3.17 203.88 4.99C203.88 6.81 202.38 8.29 200.55 8.29C198.71 8.29 197.21 6.81 197.21 4.99C197.21 3.17 198.71 1.69 200.55 1.69Z" fill="#FF6A00" fill-opacity="1.000000" fill-rule="evenodd"/>
</svg>
