<svg width="20.000000" height="20.000000" viewBox="0 0 20 20" fill="none">
	<defs>
		<clipPath id="clip8_3884">
			<rect id="compare" rx="0.000000" width="19.000000" height="19.000000" transform="translate(0.500000 0.500000)" fill="white" fill-opacity="0"/>
		</clipPath>
	</defs>
	<rect id="compare" rx="0.000000" width="19.000000" height="19.000000" transform="translate(0.500000 0.500000)" fill="#FFFFFF" fill-opacity="0"/>
	<g clip-path="url(#clip8_3884)">
		<path id="Vector" d="M0 6C0 2.68 2.68 0 6 0L14 0C17.31 0 20 2.68 20 6L20 14C20 17.31 17.31 20 14 20L6 20C2.68 20 0 17.31 0 14L0 6ZM6 2L14 2C16.2 2 18 3.79 18 6L18 14C18 16.2 16.2 18 14 18L6 18C3.79 18 2 16.2 2 14L2 6C2 3.79 3.79 2 6 2Z" fill="#000000" fill-opacity="1.000000" fill-rule="evenodd"/>
		<path id="Vector" d="M10 5C9.44 5 9 5.44 9 6L9 14C9 14.55 9.44 15 10 15C10.55 15 11 14.55 11 14L11 6C11 5.44 10.55 5 10 5Z" fill="#000000" fill-opacity="1.000000" fill-rule="nonzero"/>
		<path id="Vector" d="M13 8C13 7.44 13.44 7 14 7C14.55 7 15 7.44 15 8L15 14C15 14.55 14.55 15 14 15C13.44 15 13 14.55 13 14L13 8Z" fill="#000000" fill-opacity="1.000000" fill-rule="nonzero"/>
		<path id="Vector" d="M6 10C5.44 10 5 10.44 5 11L5 14C5 14.55 5.44 15 6 15C6.55 15 7 14.55 7 14L7 11C7 10.44 6.55 10 6 10Z" fill="#000000" fill-opacity="1.000000" fill-rule="nonzero"/>
	</g>
</svg>
