<svg width="20.000000" height="17.999802" viewBox="0 0 20 17.9998" fill="none">
	<defs/>
	<path id="Vector" d="M6 2C3.79 2 2 3.79 2 6C2 7.21 2.54 8.3 3.4 9.04L3.42 9.05L10 15.25L16.58 9.05L16.6 9.03C17.45 8.3 18 7.21 18 6C18 3.79 16.2 2 14 2C12.69 2 11.53 2.62 10.79 3.6L10 4.66L9.2 3.6C8.46 2.62 7.3 2 6 2ZM0 6C0 2.68 2.68 0 6 0C7.53 0 8.93 0.57 10 1.52C11.06 0.57 12.46 0 14 0C17.31 0 20 2.68 20 6C20 7.81 19.19 9.44 17.91 10.54L9.99 17.99L2.08 10.54C0.8 9.44 0 7.81 0 6Z" fill="#000000" fill-opacity="1.000000" fill-rule="evenodd"/>
</svg>
